# xmcd
# Copyright (C) 1995-1998 Ti Kan
#
# Track frame offsets:
#       150
#       12052
#       28596
#       38419
#
# Disc length: 818 seconds
#
# Revision: 0
# Processed by: cddbd v1.5.2PL0 Copyright (c) Steve Scherf et al.
# Submitted via: CD-Import v1.0
#
DISCID=1d033004
DTITLE=Les Yeux Sans Visage - Les Yeux Sans Visage
DYEAR=09
DGENRE=
TTITLE0=New Age
TTITLE1=Orchestra
TTITLE2=Little Girl
TTITLE3=Christmas
EXTD=
EXTT0=
EXTT1=
EXTT2=
EXTT3=
PLAYORDER=
